<?xml version="1.0" encoding="utf-8"?><!-- Uploaded to: SVG Repo, www.svgrepo.com, Generator: SVG Repo Mixer Tools -->
<svg fill="#000000" width="800px" height="800px" viewBox="0 0 24 24" id="virus" data-name="Flat Color" xmlns="http://www.w3.org/2000/svg" class="icon flat-color"><path id="secondary" d="M12,8a1,1,0,0,1-1-1V3a1,1,0,0,1,2,0V7A1,1,0,0,1,12,8Zm4.24,1.17,2.83-2.83a1,1,0,1,0-1.41-1.41L14.83,7.76a1,1,0,0,0,0,1.41,1,1,0,0,0,1.41,0ZM22,12a1,1,0,0,0-1-1H17a1,1,0,0,0,0,2h4A1,1,0,0,0,22,12Zm-2.93,7.07a1,1,0,0,0,0-1.41l-2.83-2.83a1,1,0,0,0-1.41,1.41l2.83,2.83a1,1,0,0,0,1.41,0ZM13,21V17a1,1,0,0,0-2,0v4a1,1,0,0,0,2,0ZM6.34,19.07l2.83-2.83a1,1,0,0,0-1.41-1.41L4.93,17.66a1,1,0,0,0,0,1.41,1,1,0,0,0,1.41,0ZM8,12a1,1,0,0,0-1-1H3a1,1,0,0,0,0,2H7A1,1,0,0,0,8,12ZM9.17,9.17a1,1,0,0,0,0-1.41L6.35,4.94A1,1,0,1,0,4.94,6.35L7.76,9.17a1,1,0,0,0,1.41,0Z" style="fill: rgb(44, 169, 188);"></path><path id="primary" d="M13,4H11a1,1,0,0,1,0-2h2a1,1,0,0,1,0,2Zm6.78,3.05a1,1,0,0,0,0-1.41L18.36,4.22a1,1,0,0,0-1.41,0,1,1,0,0,0,0,1.42l1.41,1.41a1,1,0,0,0,.71.29A1,1,0,0,0,19.78,7.05ZM22,13V11a1,1,0,0,0-2,0v2a1,1,0,0,0,2,0Zm-3.64,6.78,1.42-1.42a1,1,0,0,0,0-1.41,1,1,0,0,0-1.42,0L17,18.36a1,1,0,0,0,0,1.42,1,1,0,0,0,.71.29A1,1,0,0,0,18.36,19.78ZM14,21a1,1,0,0,0-1-1H11a1,1,0,0,0,0,2h2A1,1,0,0,0,14,21ZM7.05,19.78a1,1,0,0,0,0-1.42L5.64,17a1,1,0,0,0-1.42,0,1,1,0,0,0,0,1.41l1.42,1.42a1,1,0,0,0,1.41,0ZM4,13V11a1,1,0,0,0-2,0v2a1,1,0,0,0,2,0ZM5.64,7.05,7.05,5.64a1,1,0,0,0,0-1.42,1,1,0,0,0-1.41,0L4.22,5.64a1,1,0,0,0,0,1.41,1,1,0,0,0,.71.29A1,1,0,0,0,5.64,7.05ZM12,6a6,6,0,1,0,6,6A6,6,0,0,0,12,6Z" style="fill: rgb(0, 0, 0);"></path></svg>